<svg width="21" height="25" viewBox="0 0 21 25" fill="none" xmlns="http://www.w3.org/2000/svg">
<g clip-path="url(#clip0_2_483)">
<path d="M17.1912 12.9541C17.1657 9.87786 19.688 8.3784 19.8055 8.31142C18.3758 6.20909 16.1598 5.92053 15.3786 5.89992C13.5149 5.70412 11.7124 7.02323 10.7627 7.02323C9.79769 7.02323 8.33737 5.92053 6.75961 5.95145C4.73762 5.97721 2.84329 7.16235 1.80166 8.99674C-0.342864 12.7428 1.25532 18.246 3.31305 21.2758C4.33935 22.7598 5.53927 24.4138 7.11192 24.3571C8.64883 24.2953 9.22581 23.3678 11.0793 23.3678C12.9175 23.3678 13.4587 24.3571 15.062 24.3211C16.7112 24.2953 17.7529 22.8319 18.7434 21.3376C19.9331 19.6372 20.408 17.9626 20.4284 17.8801C20.3876 17.8595 17.2218 16.6383 17.1912 12.9541ZM14.1633 3.9058C14.9905 2.85979 15.5573 1.44278 15.399 0C14.2042 0.0515277 12.703 0.834749 11.8452 1.855C11.0844 2.75673 10.4002 4.23042 10.5789 5.61652C11.9167 5.71442 13.3004 4.9312 14.1633 3.9058Z" fill="#000E2B"/>
</g>
<defs>
<clipPath id="clip0_2_483">
<rect width="19.6429" height="24.3571" fill="white" transform="translate(0.787598)"/>
</clipPath>
</defs>
</svg>
