<svg width="60" height="60" viewBox="0 0 60 60" fill="none" xmlns="http://www.w3.org/2000/svg">
<path d="M36.0469 37.9387C37.9256 36.0599 38.865 33.7931 38.865 31.1377C38.865 28.4823 37.9256 26.2153 36.0469 24.3365C34.1681 22.4577 31.9009 21.5184 29.2456 21.5184C26.5902 21.5184 24.3232 22.4577 22.4444 24.3365C20.5656 26.2153 19.6262 28.4823 19.6262 31.1377C19.6262 33.7931 20.5656 36.0599 22.4444 37.9387C24.3232 39.8175 26.5902 40.7569 29.2456 40.7569C31.9009 40.7569 34.1681 39.8175 36.0469 37.9387ZM39.729 20.6541C42.6098 23.5349 44.0504 27.0294 44.0504 31.1377C44.0504 35.2458 42.6098 38.7404 39.729 41.6212C36.8485 44.502 33.354 45.9426 29.2456 45.9426C25.1373 45.9426 21.6428 44.502 18.762 41.6212C15.8812 38.7404 14.4408 35.2458 14.4408 31.1377C14.4408 27.0294 15.8812 23.5349 18.762 20.6541C21.6428 17.7733 25.1373 16.3329 29.2456 16.3329C33.354 16.3329 36.8485 17.7733 39.729 20.6541ZM47.0939 13.2893C47.7702 13.9657 48.1084 14.7798 48.1084 15.7317C48.1084 16.6836 47.7702 17.4978 47.0939 18.1741C46.4176 18.8505 45.6035 19.1887 44.6516 19.1887C43.6998 19.1887 42.8853 18.8505 42.209 18.1741C41.5327 17.4978 41.1945 16.6836 41.1945 15.7317C41.1945 14.7798 41.5327 13.9657 42.209 13.2893C42.8853 12.613 43.6998 12.2748 44.6516 12.2748C45.6035 12.2748 46.4176 12.613 47.0939 13.2893ZM32.1013 7.46513C30.3728 7.46513 29.4209 7.46513 29.2456 7.46513C29.0702 7.46513 28.1058 7.46513 26.3523 7.46513C24.6238 7.44007 23.3087 7.44007 22.4068 7.46513C21.505 7.46513 20.2901 7.50268 18.762 7.57783C17.259 7.62794 15.9689 7.75317 14.8917 7.95358C13.8396 8.12893 12.9503 8.3544 12.2239 8.62995C10.9713 9.13097 9.86912 9.85743 8.91723 10.8093C7.96531 11.7612 7.23886 12.8634 6.73784 14.116C6.46228 14.8424 6.22432 15.7442 6.02391 16.8214C5.84856 17.8735 5.7233 19.1636 5.64816 20.6917C5.59804 22.1947 5.56048 23.3971 5.53542 24.2989C5.53542 25.2007 5.53542 26.5284 5.53542 28.2819C5.56048 30.0104 5.57301 30.9623 5.57301 31.1377C5.57301 31.3131 5.56048 32.2775 5.53542 34.0309C5.53542 35.7595 5.53542 37.0748 5.53542 37.9764C5.56048 38.8781 5.59804 40.0934 5.64816 41.6212C5.7233 43.1244 5.84856 44.4144 6.02391 45.4916C6.22432 46.5438 6.46228 47.433 6.73784 48.1595C7.23886 49.4118 7.96531 50.5142 8.91723 51.4661C9.86912 52.418 10.9713 53.1445 12.2239 53.6453C12.9503 53.9208 13.8396 54.159 14.8917 54.3594C15.9689 54.5349 17.259 54.6598 18.762 54.7353C20.2901 54.7851 21.505 54.8228 22.4068 54.8478C23.3087 54.8478 24.6238 54.8478 26.3523 54.8478C28.1058 54.8228 29.0702 54.8104 29.2456 54.8104C29.4209 54.8104 30.3728 54.8228 32.1013 54.8478C33.8548 54.8478 35.1826 54.8478 36.0843 54.8478C36.9863 54.8228 38.1887 54.7851 39.6916 54.7353C41.2198 54.6598 42.5098 54.5349 43.562 54.3594C44.6392 54.159 45.5408 53.9208 46.2673 53.6453C47.5197 53.1445 48.6221 52.418 49.5739 51.4661C50.5258 50.5142 51.2523 49.4118 51.7535 48.1595C52.029 47.433 52.2543 46.5438 52.4298 45.4916C52.6302 44.4144 52.7552 43.1244 52.8054 41.6212C52.8805 40.0934 52.9182 38.8781 52.9182 37.9764C52.9431 37.0748 52.9431 35.7595 52.9182 34.0309C52.9182 32.2775 52.9182 31.3131 52.9182 31.1377C52.9182 30.9623 52.9182 30.0104 52.9182 28.2819C52.9431 26.5284 52.9431 25.2007 52.9182 24.2989C52.9182 23.3971 52.8805 22.1947 52.8054 20.6917C52.7552 19.1636 52.6302 17.8735 52.4298 16.8214C52.2543 15.7442 52.029 14.8424 51.7535 14.116C51.2523 12.8634 50.5258 11.7612 49.5739 10.8093C48.6221 9.85743 47.5197 9.13097 46.2673 8.62995C45.5408 8.3544 44.6392 8.12893 43.562 7.95358C42.5098 7.75317 41.2198 7.62794 39.6916 7.57783C38.1887 7.50268 36.9863 7.46513 36.0843 7.46513C35.1826 7.44007 33.8548 7.44007 32.1013 7.46513ZM57.9156 19.2263C58.0409 21.4307 58.1036 25.4011 58.1036 31.1377C58.1036 36.8744 58.0409 40.8448 57.9156 43.0493C57.6653 48.2596 56.1119 52.2927 53.2564 55.1486C50.4005 58.0041 46.3674 59.5572 41.1571 59.8078C38.9526 59.9331 34.9822 59.9957 29.2456 59.9957C23.509 59.9957 19.5386 59.9331 17.3341 59.8078C12.1237 59.5572 8.09054 58.0041 5.23481 55.1486C2.37908 52.2927 0.825955 48.2596 0.575452 43.0493C0.450198 40.8448 0.387573 36.8744 0.387573 31.1377C0.387573 25.4011 0.450198 21.4307 0.575452 19.2263C0.825955 14.0158 2.37908 9.98266 5.23481 7.12692C8.09054 4.27119 12.1237 2.71807 17.3341 2.46757C19.5386 2.34231 23.509 2.27969 29.2456 2.27969C34.9822 2.27969 38.9526 2.34231 41.1571 2.46757C46.3674 2.71807 50.4005 4.27119 53.2564 7.12692C56.1119 9.98266 57.6653 14.0158 57.9156 19.2263Z" fill="#252AFF"/>
</svg>
