<svg width="18" height="18" viewBox="0 0 18 18" fill="none" xmlns="http://www.w3.org/2000/svg">
<path d="M4.40145 6.12855V17.4814H0.620983V6.12855H4.40145ZM4.64202 2.62303C4.64966 3.18055 4.45491 3.64643 4.05777 4.02066C3.66827 4.39488 3.15275 4.582 2.51122 4.582H2.4883C1.86204 4.582 1.35798 4.39488 0.976118 4.02066C0.594253 3.64643 0.40332 3.18055 0.40332 2.62303C0.40332 2.05787 0.598072 1.59199 0.987574 1.2254C1.38471 0.851176 1.90023 0.664062 2.53413 0.664062C3.16802 0.664062 3.6759 0.851176 4.05777 1.2254C4.43963 1.59199 4.63439 2.05787 4.64202 2.62303ZM17.9997 10.9744V17.4814H14.2307V11.4097C14.2307 10.6078 14.0741 9.98157 13.761 9.53097C13.4555 9.07273 12.9743 8.84361 12.3175 8.84361C11.8364 8.84361 11.4316 8.97726 11.1032 9.24457C10.7824 9.50424 10.5418 9.82882 10.3815 10.2183C10.2974 10.4474 10.2554 10.7568 10.2554 11.1463V17.4814H6.48643C6.50171 14.4341 6.50934 11.9634 6.50934 10.0694C6.50934 8.17535 6.50552 7.04503 6.49789 6.67844L6.48643 6.12855H10.2554V7.77821H10.2325C10.3853 7.53381 10.5418 7.31997 10.7022 7.13667C10.8626 6.95338 11.0764 6.75481 11.3438 6.54096C11.6187 6.32712 11.9509 6.16292 12.3404 6.04836C12.7376 5.92616 13.1767 5.86506 13.6579 5.86506C14.9638 5.86506 16.014 6.30039 16.8082 7.17104C17.6025 8.03406 17.9997 9.30185 17.9997 10.9744Z" fill="#252AFF"/>
</svg>
