<svg width="58px" viewBox="0 0 88 36" fill="none" xmlns="http://www.w3.org/2000/svg"><path fill-rule="evenodd" clip-rule="evenodd" d="M77.5962 2.76166e-05C74.8672 2.75317e-05 72.25 1.0864 70.3201 3.02023C68.3902 4.95406 67.3056 7.57699 67.305 10.3122V14.4427C67.3476 17.1498 68.4505 19.7316 70.3756 21.6308C72.3007 23.5301 74.8936 24.5946 77.5949 24.5946C80.2962 24.5946 82.8892 23.5301 84.8143 21.6308C86.7394 19.7316 87.8422 17.1498 87.8849 14.4427V10.3122C87.8849 7.57723 86.8009 4.95429 84.8714 3.02039C82.9419 1.08648 80.3249 2.76166e-05 77.5962 2.76166e-05V2.76166e-05ZM82.7405 14.4427C82.7105 15.7906 82.1552 17.0731 81.1935 18.0158C80.2318 18.9584 78.9401 19.4862 77.5949 19.4862C76.2498 19.4862 74.9581 18.9584 73.9964 18.0158C73.0346 17.0731 72.4793 15.7906 72.4493 14.4427V10.3122C72.4793 8.9643 73.0346 7.68176 73.9964 6.73913C74.9581 5.79649 76.2498 5.26868 77.5949 5.26868C78.9401 5.26868 80.2318 5.79649 81.1935 6.73913C82.1552 7.68176 82.7105 8.9643 82.7405 10.3122V14.4427ZM17.767 1.16182H13.2407C13.2003 1.16182 13.1602 1.16979 13.1229 1.18529C13.0856 1.20079 13.0516 1.22351 13.0231 1.25216C12.9945 1.2808 12.9718 1.3148 12.9564 1.35222C12.9409 1.38964 12.9329 1.42975 12.9329 1.47026V14.3604C12.9329 17.1493 10.6582 19.5499 7.87579 19.5988C7.15132 19.6117 6.43234 19.4707 5.76621 19.1849C5.10007 18.8992 4.50191 18.4752 4.01112 17.9409C3.95766 17.8827 3.88394 17.8473 3.80519 17.8421C3.72643 17.8368 3.64868 17.8621 3.58798 17.9126L0.110551 20.83C0.0789939 20.8566 0.0530983 20.8893 0.0344028 20.9261C0.0157074 20.963 0.0045935 21.0032 0.00172276 21.0445C-0.00114798 21.0857 0.00428317 21.1271 0.017692 21.1662C0.0311009 21.2053 0.0522153 21.2413 0.0797789 21.2721C1.06129 22.3925 2.27562 23.2839 3.63749 23.8838C4.99936 24.4837 6.47575 24.7775 7.96298 24.7446C13.5202 24.6238 18.0645 19.8378 18.0645 14.2653V1.47026C18.0645 1.3902 18.0335 1.31327 17.978 1.25571C17.9225 1.19815 17.8468 1.16448 17.767 1.16182V1.16182ZM54.38 2.76166e-05C52.1921 0.0143329 50.0661 0.72943 48.3125 2.04087L46.4378 0.347022C46.1772 0.112635 45.8363 -0.0116984 45.4864 2.76166e-05C45.1288 0.0185824 44.7922 0.174995 44.547 0.436552C44.3018 0.698109 44.167 1.04455 44.1708 1.40343V22.1999C44.1739 22.6905 44.3182 23.1698 44.5863 23.5802C44.7695 23.8648 45.0071 24.1103 45.2853 24.3025C45.5635 24.4948 45.8769 24.63 46.2075 24.7005C46.538 24.771 46.8792 24.7753 47.2114 24.7131C47.5436 24.651 47.8603 24.5237 48.1432 24.3385L54.5108 20.1925C54.5448 20.1706 54.5742 20.1422 54.5973 20.1089C54.6204 20.0755 54.6367 20.038 54.6452 19.9984C54.6538 19.9587 54.6545 19.9178 54.6473 19.8779C54.64 19.838 54.625 19.7999 54.6031 19.7658L52.1361 15.9592C52.0911 15.8912 52.0212 15.8437 51.9416 15.8269C51.862 15.8101 51.7789 15.8253 51.7104 15.8692L49.3126 17.4294V10.3996C49.3047 9.03482 49.831 7.72135 50.7784 6.74105C51.7258 5.76075 53.0188 5.19173 54.38 5.1561C55.0637 5.14382 55.7429 5.26806 56.3782 5.52158C57.0134 5.7751 57.592 6.15282 58.0801 6.63273C58.5683 7.11264 58.9562 7.68514 59.2213 8.31685C59.4864 8.94857 59.6234 9.62686 59.6244 10.3122V23.2821C59.6244 23.3641 59.6567 23.4428 59.7143 23.5011C59.772 23.5593 59.8502 23.5924 59.9321 23.5931H64.461C64.5428 23.5924 64.6211 23.5593 64.6787 23.5011C64.7364 23.4428 64.7687 23.3641 64.7687 23.2821V10.4304C64.7584 4.72172 60.0937 -0.043668 54.38 2.76166e-05ZM41.0011 1.17467C40.6311 0.602766 40.0496 0.201599 39.3845 0.0594029C38.7193 -0.0827928 38.0251 0.0456283 37.4545 0.41642V0.41642L31.0766 4.56236C31.0426 4.58427 31.0132 4.6127 30.9901 4.64602C30.967 4.67933 30.9507 4.71688 30.9422 4.75651C30.9336 4.79614 30.9329 4.83707 30.9401 4.87697C30.9474 4.91687 30.9624 4.95495 30.9843 4.98903L33.4513 8.79312C33.4732 8.82724 33.5015 8.8567 33.5348 8.87982C33.568 8.90294 33.6055 8.91927 33.645 8.92786C33.6846 8.93646 33.7254 8.93715 33.7652 8.92991C33.805 8.92267 33.843 8.90763 33.877 8.88565L36.2722 7.32546V14.3553C36.2778 15.0324 36.1502 15.704 35.8968 16.3317C35.6434 16.9594 35.2692 17.5309 34.7954 18.0136C34.3216 18.4963 33.7577 18.8808 33.1356 19.1451C32.5136 19.4093 31.8458 19.5482 31.1702 19.5538C30.4946 19.5594 29.8246 19.4315 29.1983 19.1775C28.5721 18.9236 28.0018 18.5485 27.5202 18.0736C27.0386 17.5988 26.655 17.0335 26.3913 16.41C26.1277 15.7866 25.9891 15.1172 25.9836 14.4401V1.47026C25.9836 1.42975 25.9756 1.38964 25.9601 1.35222C25.9447 1.3148 25.922 1.2808 25.8934 1.25216C25.8648 1.22351 25.8309 1.20079 25.7936 1.18529C25.7562 1.16979 25.7162 1.16182 25.6758 1.16182H21.147C21.1065 1.16182 21.0665 1.16979 21.0292 1.18529C20.9918 1.20079 20.9579 1.22351 20.9293 1.25216C20.9008 1.2808 20.8781 1.3148 20.8626 1.35222C20.8472 1.38964 20.8392 1.42975 20.8392 1.47026V14.3219C20.8392 20.0357 25.504 24.8011 31.2074 24.76C33.9225 24.7396 36.5195 23.6441 38.432 21.7123C40.3445 19.7806 41.4173 17.1692 41.4166 14.4478V2.55493C41.4135 2.06437 41.2692 1.58512 41.0011 1.17467V1.17467Z" fill="#fff"></path><path d="M88.0004 35.7205L83.3253 32.7697L87.7978 29.801H85.9795L82.3893 32.1811L79.2555 30.1994C78.8382 29.9178 78.3504 29.7593 77.8476 29.7419C76.7192 29.7419 75.9576 30.3793 75.9576 31.7313V34.335C75.9648 34.3895 75.9605 34.4449 75.9448 34.4976C75.9291 34.5502 75.9024 34.5989 75.8665 34.6405C75.8307 34.682 75.7864 34.7155 75.7367 34.7386C75.6869 34.7617 75.6328 34.774 75.578 34.7746C75.4928 34.767 75.4102 34.7418 75.3351 34.7007C75.2601 34.6596 75.1944 34.6033 75.1421 34.5355L71.4082 30.3793C71.2513 30.1886 71.056 30.0332 70.835 29.9233C70.614 29.8135 70.3724 29.7517 70.1259 29.7419C69.3848 29.7419 68.7668 30.2405 68.7668 31.2507V34.5278C68.7668 34.6898 68.6796 34.772 68.5667 34.772C68.5245 34.7708 68.4832 34.7591 68.4465 34.7381C68.4098 34.717 68.3788 34.6871 68.3565 34.6512L65.1509 30.4076C64.7457 29.8678 64.3507 29.7419 64.002 29.7419C63.2326 29.7419 62.7197 30.2328 62.7197 31.1376V35.7205H63.7814V34.3582H66.7819L67.4255 35.2167C67.554 35.3925 67.7225 35.535 67.917 35.6325C68.1114 35.7299 68.3263 35.7795 68.5437 35.777C69.331 35.777 69.8028 35.3246 69.8028 34.4173V31.1221C69.8028 30.8651 69.9439 30.7469 70.1285 30.7469C70.1911 30.7499 70.2522 30.7667 70.3076 30.796C70.363 30.8253 70.4113 30.8665 70.4491 30.9165L74.1419 35.029C74.3152 35.2545 74.5361 35.4388 74.7888 35.5685C75.0416 35.6983 75.3198 35.7704 75.6037 35.7796C76.5064 35.7796 77.0064 35.227 77.0064 34.1551V31.6362C76.9947 31.5235 77.0071 31.4095 77.0429 31.302C77.0788 31.1944 77.1372 31.0958 77.2142 31.0128C77.2912 30.9298 77.385 30.8642 77.4894 30.8206C77.5938 30.7769 77.7063 30.7562 77.8194 30.7597C78.0754 30.7739 78.3215 30.8633 78.5272 31.0168L81.3199 32.7774L76.8731 35.7282H78.6913L82.2508 33.366L85.9924 35.7282L88.0004 35.7205ZM63.7942 33.4072V30.9782C63.7942 30.8111 63.8789 30.7443 63.9712 30.7443C64.0114 30.7455 64.0507 30.757 64.0853 30.7777C64.1198 30.7984 64.1485 30.8276 64.1687 30.8625L66.0818 33.4072H63.7942Z" fill="#fff"></path><path d="M54.7617 35.7205H57.0031V34.7129H55.8234V33.1759H56.8851V32.2274H55.8234V30.8086H57.0031V29.8036H54.7617V35.7205Z" fill="#fff"></path><path d="M60.9808 32.5795C61.2152 32.4598 61.4127 32.2784 61.5518 32.0547C61.691 31.8309 61.7667 31.5734 61.7707 31.3097C61.7707 30.4333 61.1501 29.801 59.9756 29.801H57.8291V35.7127H60.0217C61.2783 35.7127 61.9758 34.9108 61.9758 33.9366C61.963 33.3223 61.6373 32.8519 60.9808 32.5795ZM59.7653 30.8085C60.4372 30.8085 60.7269 31.0836 60.7269 31.4897C60.7269 31.8958 60.3371 32.2274 59.6653 32.2274H58.8959V30.8085H59.7653ZM59.7345 34.7206H58.8934V33.1784H59.7345C60.5449 33.1784 60.8706 33.4637 60.8706 33.9084C60.8706 34.353 60.5474 34.7206 59.7345 34.7206Z" fill="#fff"></path><path d="M44.083 34.515V29.4H44.5292V31.41H44.5703C44.626 31.2827 44.6984 31.1634 44.7857 31.0553C44.8859 30.9285 45.0118 30.8243 45.1549 30.7494C45.336 30.6612 45.5359 30.6189 45.7371 30.6261C46.0333 30.6221 46.3232 30.7121 46.5654 30.8831C46.8111 31.058 47.003 31.2984 47.1193 31.5771C47.2577 31.9018 47.3259 32.2522 47.3194 32.6052C47.3246 32.9579 47.2574 33.3078 47.1219 33.6333C47.005 33.913 46.8133 34.155 46.568 34.3325C46.3271 34.5023 46.0392 34.5922 45.7448 34.5895C45.5434 34.5956 45.3436 34.5524 45.1626 34.4636C45.0173 34.3887 44.8896 34.2836 44.7882 34.1551C44.7016 34.0452 44.6285 33.9252 44.5703 33.7978H44.5138V34.5098L44.083 34.515ZM44.5215 32.5975C44.5164 32.8787 44.5634 33.1585 44.66 33.4226C44.7393 33.6427 44.8777 33.8367 45.0601 33.9829C45.2462 34.1191 45.4707 34.1925 45.7012 34.1925C45.9316 34.1925 46.1562 34.1191 46.3423 33.9829C46.5253 33.8325 46.6644 33.6353 46.7449 33.4123C46.8384 33.1537 46.8845 32.8803 46.8808 32.6052C46.8855 32.3343 46.8394 32.0649 46.7449 31.811C46.6662 31.5898 46.5277 31.3949 46.3449 31.2481C46.1583 31.113 45.9339 31.0403 45.7037 31.0403C45.4736 31.0403 45.2492 31.113 45.0626 31.2481C44.8811 31.3913 44.7434 31.5828 44.6651 31.8007C44.5688 32.0552 44.5201 32.3253 44.5215 32.5975V32.5975Z" fill="#fff"></path><path d="M48.4631 35.9518C48.3769 35.9535 48.2908 35.9449 48.2067 35.9261C48.1441 35.9152 48.083 35.8971 48.0246 35.8721L48.1451 35.4814C48.2747 35.5248 48.4116 35.5414 48.5478 35.5303C48.6683 35.5184 48.78 35.4615 48.8606 35.3709C48.9752 35.2474 49.0626 35.1012 49.1171 34.9417L49.2556 34.551L47.8477 30.6775H48.3298L49.4658 33.9264H49.5069L50.6429 30.6775H51.1251L49.5069 35.1216C49.4474 35.2889 49.3608 35.4452 49.2504 35.5842C49.1579 35.7013 49.0405 35.7961 48.9068 35.8618C48.7671 35.9236 48.6158 35.9543 48.4631 35.9518Z" fill="#fff"></path></svg>