<svg width="23" height="25" viewBox="0 0 23 25" fill="none" xmlns="http://www.w3.org/2000/svg">
<g clip-path="url(#clip0_2_490)">
<path d="M0.787598 12.5721C0.787598 9.16736 0.787598 5.7626 0.787598 2.29236C0.787598 1.89951 0.853466 1.50665 1.18281 1.17927C1.31454 1.04832 1.38041 1.04832 1.51215 1.17927C3.81754 3.53641 6.18879 5.89355 8.49418 8.2507C10.0092 9.75665 11.5241 11.3281 13.0391 12.834C13.1708 12.965 13.1708 13.0305 13.0391 13.2269C9.35047 16.8281 5.66185 20.4947 1.90736 24.1614C1.70975 24.3578 1.51215 24.3578 1.31454 24.2269C0.919334 23.8995 0.787598 23.5067 0.787598 22.9828C0.787598 20.9531 0.787598 18.9233 0.787598 16.8936C0.787598 15.4531 0.787598 14.0126 0.787598 12.5721Z" fill="#0051FF"/>
<path d="M2.10498 0.785645C2.36845 0.785645 2.56606 0.851121 2.76366 0.982073C7.50618 3.60112 12.2487 6.22017 16.9253 8.90469C17.1229 9.03564 17.1229 9.10112 16.9912 9.23207C15.9373 10.2797 14.8834 11.3273 13.8295 12.3749C13.6978 12.5059 13.6319 12.5714 13.5002 12.3749C9.7457 8.57731 5.99121 4.71422 2.23672 0.916597C2.23672 0.916597 2.17085 0.851121 2.10498 0.785645Z" fill="#0051FF"/>
<path d="M3.15887 24.0952C6.58402 20.625 10.075 17.1547 13.5002 13.75C13.6978 13.5536 13.8295 13.5536 14.0271 13.75C14.8834 14.6666 15.8056 15.5178 16.6619 16.4345C16.7936 16.5655 16.8595 16.6309 16.596 16.7619C12.1828 19.1845 7.76965 21.5417 3.35648 23.9643C3.29061 23.9643 3.22474 24.0297 3.15887 24.0952Z" fill="#0051FF"/>
<path d="M22.7876 12.7025C22.7876 13.0953 22.59 13.3572 22.3265 13.5537C22.1289 13.6846 21.8654 13.8156 21.6678 13.9465C20.3505 14.6668 18.9672 15.387 17.6499 16.1727C17.4523 16.3037 17.3864 16.2382 17.1888 16.1072C16.2666 15.1251 15.2786 14.1429 14.3565 13.2263C14.2247 13.0953 14.2247 13.0298 14.3565 12.8989C15.4762 11.7858 16.596 10.6727 17.7157 9.62509C17.8475 9.49413 17.9133 9.49413 18.111 9.55961C19.4283 10.2798 20.7457 11.0001 22.063 11.7858C22.4583 11.9168 22.7876 12.2441 22.7876 12.7025Z" fill="#0051FF"/>
</g>
<defs>
<clipPath id="clip0_2_490">
<rect width="22" height="23.5714" fill="white" transform="translate(0.787598 0.785645)"/>
</clipPath>
</defs>
</svg>
