<svg width="63" height="53" viewBox="0 0 63 53" fill="none" xmlns="http://www.w3.org/2000/svg">
<g clip-path="url(#clip0_19_4)">
<path d="M59.368 9.18796C57.6896 11.6429 55.6606 13.7346 53.2806 15.4631C53.3059 15.8138 53.3184 16.3398 53.3184 17.0412C53.3184 20.2978 52.8424 23.5543 51.8906 26.8109C50.9384 30.0424 49.4857 33.1486 47.5318 36.1296C45.6028 39.1105 43.2983 41.7535 40.6179 44.0581C37.9375 46.3377 34.706 48.1663 30.9233 49.5442C27.1407 50.8969 23.095 51.5732 18.7864 51.5732C11.9977 51.5732 5.78525 49.7571 0.148911 46.1248C1.02567 46.2248 2.00264 46.275 3.0798 46.275C8.71613 46.275 13.7387 44.5465 18.1476 41.0897C15.5173 41.0395 13.1626 40.2378 11.0834 38.6848C9.00421 37.1064 7.57633 35.1027 6.79979 32.6727C7.62645 32.7979 8.39049 32.8605 9.09189 32.8605C10.169 32.8605 11.2337 32.7228 12.2858 32.4472C9.48017 31.8711 7.15049 30.4808 5.29676 28.2763C3.4681 26.0468 2.55374 23.4666 2.55374 20.5358V20.3855C4.25717 21.3374 6.08583 21.8509 8.03976 21.9261C6.38644 20.8239 5.07129 19.3834 4.09435 17.6049C3.11738 15.8263 2.6289 13.8974 2.6289 11.8183C2.6289 9.61383 3.18 7.57223 4.28223 5.69345C7.31331 9.42595 10.9957 12.4194 15.3294 14.674C19.6882 16.9035 24.3476 18.1435 29.3075 18.394C29.1071 17.442 29.0069 16.5152 29.0069 15.6134C29.0069 12.2566 30.1843 9.4009 32.539 7.04615C34.9189 4.66638 37.7869 3.47648 41.1437 3.47648C44.651 3.47648 47.6069 4.75405 50.0118 7.30917C52.7421 6.78313 55.3096 5.80618 57.7145 4.3783C56.7876 7.25909 55.0092 9.48857 52.379 11.0667C54.7084 10.8162 57.0382 10.19 59.368 9.18796Z" fill="#252AFF"/>
</g>
<defs>
<clipPath id="clip0_19_4">
<rect width="62.32" height="52.48" fill="white" transform="translate(0.0399933 0.52)"/>
</clipPath>
</defs>
</svg>
